<?xml version="1.0" encoding="utf-8"?>
<!-- Generator: Adobe Illustrator 25.0.0, SVG Export Plug-In . SVG Version: 6.00 Build 0)  -->
<svg version="1.1" id="logo" xmlns="http://www.w3.org/2000/svg" xmlns:xlink="http://www.w3.org/1999/xlink" x="0px" y="0px"
	 viewBox="0 0 1000 1000" style="enable-background:new 0 0 1000 1000;" xml:space="preserve">
<style type="text/css">
	.st0{fill:#65C6C1;}
	.st1{fill:#11142D;}
</style>
<polygon id="plus" class="st0" points="664.6,124.9 762.4,124.9 762.4,211.4 847.9,211.4 847.9,310.3 762.4,310.3 762.4,395.1 
	664.6,395.1 664.6,309.4 580.2,309.4 580.2,211.1 664.6,211.1 "/>
<g id="name">
	<path class="st1" d="M198.4,812.9h17.1v47.4h-11.1v-32c0-0.9,0-2.2,0-3.9c0-1.7,0-2.9,0-3.8l-10.8,39.8h-11.5l-10.7-39.8
		c0,0.9,0,2.2,0,3.8c0,1.7,0,3,0,3.9v32h-11.1v-47.4h17.3l10.3,37.3L198.4,812.9z"/>
	<path class="st1" d="M270.2,856.1c-4.3,3.7-10.5,5.5-18.6,5.5c-8.1,0-14.3-1.8-18.6-5.5c-5.8-4.5-8.6-11-8.6-19.5
		c0-8.7,2.9-15.2,8.6-19.5c4.3-3.7,10.5-5.5,18.6-5.5c8.1,0,14.3,1.8,18.6,5.5c5.7,4.3,8.6,10.9,8.6,19.5
		C278.8,845.1,276,851.6,270.2,856.1z M262.8,848.9c2.8-2.9,4.1-7,4.1-12.3c0-5.3-1.4-9.4-4.1-12.3c-2.8-2.9-6.5-4.4-11.2-4.4
		s-8.5,1.4-11.3,4.3c-2.8,2.9-4.2,7-4.2,12.3c0,5.3,1.4,9.4,4.2,12.3c2.8,2.9,6.6,4.3,11.3,4.3S260,851.8,262.8,848.9z"/>
	<path class="st1" d="M287.7,812.9h12.5l22.6,33v-33h11.1v47.4h-11.9l-23.1-33.6v33.6h-11.1V812.9z"/>
	<path class="st1" d="M387,821.3h-30.1v10.1h27.6v8.2h-27.6v12.2h31.5v8.5h-43.1v-47.4H387V821.3z"/>
	<path class="st1" d="M430,812.9h13.5l-19,29.6v17.8h-11.9v-17.8l-19.7-29.6h14l11.8,20.6L430,812.9z"/>
	<path class="st1" d="M467.7,847.1v-8.4h15.8v-13.2h10.1v13.2h15.8v8.4h-15.8v13.2h-10.1v-13.2H467.7z"/>
	<path class="st1" d="M549.8,860.3H538v-47.4h11.8V860.3z"/>
	<path class="st1" d="M598.6,812.9h17.1v47.4h-11.1v-32c0-0.9,0-2.2,0-3.9c0-1.7,0-2.9,0-3.8l-10.8,39.8h-11.5l-10.7-39.8
		c0,0.9,0,2.2,0,3.8c0,1.7,0,3,0,3.9v32h-11.1v-47.4H578l10.3,37.3L598.6,812.9z"/>
	<path class="st1" d="M664.8,839.8c-3.3,2.3-8.1,3.5-14.3,3.5h-11.8v17h-11.8v-47.4h24.4c5.6,0,10.1,1.2,13.5,3.7
		c3.3,2.4,5,6.2,5,11.3C669.8,833.5,668.2,837.5,664.8,839.8z M655.8,822.7c-1.5-1-3.6-1.6-6.3-1.6h-10.7v13.9h10.7
		c2.7,0,4.8-0.6,6.3-1.7c1.5-1.1,2.3-2.9,2.3-5.4S657.3,823.8,655.8,822.7z"/>
	<path class="st1" d="M689.8,812.9h13.4l20.1,47.4h-12.9l-3.8-9.7h-20.9l-3.9,9.7h-12.4L689.8,812.9z M689,842.4h14.6l-7.2-18.6
		L689,842.4z"/>
	<path class="st1" d="M736,817.9c4.6-3.9,10.4-5.8,17.5-5.8c9.5,0,16.4,2.6,20.8,7.8c2.4,2.9,3.7,5.9,3.9,8.8h-11.9
		c-0.8-2.3-1.7-4-2.9-5.1c-2.1-2.1-5.3-3.1-9.4-3.1c-4.2,0-7.6,1.5-10,4.4s-3.7,7-3.7,12.3c0,5.3,1.3,9.3,3.9,11.9s5.9,4,9.8,4
		c4.1,0,7.2-1.1,9.3-3.4c1.2-1.2,2.2-3.1,2.9-5.5H778c-1,5.2-3.6,9.4-7.8,12.6s-9.5,4.9-16.1,4.9c-8.1,0-14.4-2.2-19.1-6.6
		c-4.6-4.4-6.9-10.4-6.9-18.1C728.1,828.7,730.7,822.4,736,817.9z"/>
	<path class="st1" d="M828.9,812.9v8.4h-17v39h-12v-39h-17.1v-8.4H828.9z"/>
</g>
<polygon id="icon_1_" class="st1" points="152.1,174.6 152.1,756.8 280.9,756.8 280.9,392 435.8,709.2 511.1,709.2 664.6,397.1 
	520,396.9 474.3,493.7 327.2,174.6 "/>
</svg>
